<svg width="500" height="500" viewBox="0 0 500 500" fill="none" xmlns="http://www.w3.org/2000/svg">
<g id="Eyes-pana 1">
<g id="blobs">
<path id="Vector" d="M43.92 123C53.17 128.5 66.2 126.45 73.31 118.38C77.38 113.77 79.56 107.62 84.13 103.49C93.02 95.49 106.92 98.02 118.36 94.49C123.5 92.8506 128.157 89.9703 131.919 86.1036C135.681 82.2368 138.432 77.5028 139.93 72.32C141.33 67.111 141.423 61.6371 140.202 56.3833C138.981 51.1295 136.483 46.2579 132.93 42.2C120 26.13 100.22 28.37 84.78 33.37C69.34 38.37 56.67 49.65 46.5 62.29C39.28 71.29 32.92 81.48 31.35 92.91C29.78 104.34 34 117.14 43.92 123Z" fill="#EBEBEB"/>
<path id="Vector_2" d="M291.324 444.165C296.001 424.687 284.001 405.106 264.524 400.43C245.046 395.753 225.465 407.753 220.789 427.23C216.112 446.708 228.111 466.289 247.589 470.965C267.067 475.642 286.648 463.642 291.324 444.165Z" fill="#EBEBEB"/>
</g>
<g id="plants">
<path id="Vector_3" d="M482.16 102.43C480.187 102.149 478.177 102.285 476.26 102.83C480.436 101.124 483.82 97.9119 485.74 93.83C486.37 92.48 486.74 90.68 485.66 89.66C485.228 89.3585 484.74 89.148 484.224 89.0414C483.708 88.9348 483.176 88.9343 482.66 89.04C478.509 89.3927 474.425 90.3078 470.52 91.76C471.535 89.9871 472.117 88 472.22 85.96C472.15 83.96 470.8 81.77 468.77 81.53C467.646 81.4906 466.534 81.7678 465.56 82.33C459.053 85.4229 453.402 90.0611 449.1 95.84C446.83 98.84 444.91 102.42 444.82 106.22C444.73 110.02 445.59 114.74 449.27 115.72L448.27 115.28C453.842 117.818 459.994 118.813 466.083 118.161C472.171 117.508 477.972 115.232 482.88 111.57C484.58 110.27 486.3 108.47 486.11 106.33C486 104.35 484.1 102.86 482.16 102.43Z" fill="#CDCD66"/>
<path id="Vector_4" d="M476.81 102.72C476.421 102.889 476.015 103.016 475.6 103.1L472.27 104.01C469.47 104.8 465.63 106.01 461.46 107.54C457.29 109.07 453.57 110.63 450.88 111.74L447.68 113.05C447.299 113.237 446.896 113.375 446.48 113.46C446.835 113.227 447.21 113.026 447.6 112.86C448.33 112.5 449.4 112 450.73 111.4C453.39 110.2 457.1 108.6 461.28 107.05C464.849 105.719 468.487 104.584 472.18 103.65C473.6 103.31 474.75 103.05 475.55 102.9C475.962 102.792 476.384 102.731 476.81 102.72V102.72Z" fill="#263238"/>
<path id="Vector_5" d="M470.82 91.16C470.627 91.5517 470.396 91.9235 470.13 92.27C469.67 93 469 94 468 95.16C465.595 98.2624 462.94 101.162 460.06 103.83C457.173 106.49 454.069 108.905 450.78 111.05C449.52 111.87 448.48 112.5 447.78 112.91C447.413 113.148 447.02 113.346 446.61 113.5C446.938 113.214 447.293 112.959 447.67 112.74C448.38 112.28 449.38 111.6 450.62 110.74C453.827 108.519 456.878 106.08 459.75 103.44C462.606 100.787 465.278 97.9437 467.75 94.93C468.7 93.77 469.45 92.82 469.97 92.15C470.218 91.7908 470.503 91.459 470.82 91.16V91.16Z" fill="#263238"/>
<g id="Group" opacity="0.3">
<path id="Vector_6" opacity="0.3" d="M448.83 112.3C457.61 109.3 465.97 102.95 468.83 94.01C462.49 101.67 456 108.51 448.83 112.3Z" fill="black"/>
</g>
<path id="Vector_7" d="M427.44 39C424.88 37 421.58 35.09 418.49 36.17C415.62 37.17 414.1 40.47 414.19 43.5C414.28 46.53 415.64 49.31 417 52C412.946 46.449 406.953 42.6259 400.21 41.29C397.98 40.86 395.21 40.97 394.07 42.96C393.3 44.36 393.74 46.1 394.26 47.62C396.312 53.6505 399.182 59.3706 402.79 64.62C399.74 64.01 396.55 63.41 393.57 64.26C390.59 65.11 387.89 67.91 388.29 70.99C388.653 72.667 389.473 74.2107 390.66 75.45C397.617 83.9286 406.543 90.5754 416.66 94.81C422 97 428 98.58 433.62 97.29C439.24 96 445.94 93 446 87.2L445.71 88.8C447.396 79.6239 446.59 70.1635 443.377 61.4047C440.163 52.6458 434.66 44.9089 427.44 39Z" fill="#b5651d"/>
<path id="Vector_8" d="M444.28 91.69C444.28 91.69 444.13 91.57 443.9 91.32L442.9 90.21C442.48 89.73 441.97 89.13 441.33 88.47C440.69 87.81 440 87 439.2 86.22C437.6 84.57 435.6 82.69 433.28 80.72C430.747 78.6101 428.099 76.6405 425.35 74.82C422.583 73.0271 419.711 71.4009 416.75 69.95C414.328 68.7692 411.844 67.7178 409.31 66.8C408.24 66.38 407.24 66.09 406.38 65.8C405.52 65.51 404.75 65.28 404.13 65.11L402.71 64.69C402.54 64.6459 402.376 64.5822 402.22 64.5C402.393 64.5078 402.564 64.5346 402.73 64.58L404.19 64.91C404.82 65.06 405.58 65.25 406.46 65.52C407.34 65.79 408.35 66.05 409.46 66.45C412.029 67.3289 414.546 68.3505 417 69.51C419.99 70.9558 422.888 72.5822 425.68 74.38C428.448 76.2193 431.103 78.2229 433.63 80.38C435.686 82.1439 437.648 84.0131 439.51 85.98C440.32 86.81 440.99 87.61 441.6 88.3C442.21 88.99 442.71 89.59 443.11 90.1L444.02 91.28C444.122 91.4067 444.209 91.5442 444.28 91.69V91.69Z" fill="#263238"/>
<path id="Vector_9" d="M427.24 76C427.01 75.7221 426.815 75.4164 426.66 75.09C426.32 74.49 425.84 73.6 425.27 72.5C424.13 70.3 422.64 67.21 421.14 63.73C419.64 60.25 418.43 57.03 417.62 54.73C417.21 53.56 416.9 52.6 416.7 51.94C416.574 51.6004 416.483 51.2485 416.43 50.89C416.629 51.2006 416.784 51.5371 416.89 51.89C417.18 52.64 417.54 53.55 417.96 54.62C418.86 56.93 420.13 60.11 421.62 63.62C423.11 67.13 424.55 70.2 425.62 72.44C426.11 73.44 426.52 74.37 426.86 75.1C427.019 75.3852 427.147 75.687 427.24 76V76Z" fill="#263238"/>
<path id="Vector_10" opacity="0.3" d="M402.76 64.61C402.76 64.61 418.38 63.78 426.25 75.1C426.25 75.1 414.12 66.78 402.76 64.61Z" fill="black"/>
<path id="Vector_11" d="M114.5 375.54C112.81 372.1 110.26 368.46 106.5 368.05C102.97 367.66 99.7001 370.39 98.2701 373.64C96.8401 376.89 96.8601 380.56 96.8901 384.1C95.4005 376.194 90.9876 369.139 84.5301 364.34C82.3901 362.76 79.3701 361.47 77.2101 363.02C75.6801 364.11 75.2801 366.17 75.0601 368.02C74.2043 375.414 74.3658 382.89 75.5401 390.24C72.6301 388.06 69.5401 385.82 65.9801 385.24C62.4201 384.66 58.1501 386.24 56.9801 389.7C56.5169 391.653 56.6069 393.696 57.2401 395.6C60.3335 408.071 66.4307 419.596 75.0001 429.17C79.5401 434.22 85.0001 438.83 91.6601 440.32C98.3201 441.81 106.84 441.98 109.85 435.89L108.75 437.44C121.78 420 124.07 395.12 114.5 375.54Z" fill="#CDCD66"/>
<path id="Vector_12" d="M105.77 439.75C105.682 439.568 105.615 439.377 105.57 439.18C105.45 438.74 105.29 438.18 105.09 437.51C104.89 436.84 104.65 435.89 104.32 434.87C103.99 433.85 103.66 432.68 103.19 431.41C102.72 430.14 102.27 428.75 101.66 427.28C101.05 425.81 100.41 424.28 99.66 422.62C98.0506 419.111 96.2443 415.696 94.25 412.39C92.2224 409.104 90.0053 405.939 87.61 402.91C86.47 401.54 85.41 400.22 84.33 399.06C83.25 397.9 82.26 396.81 81.33 395.85C80.4 394.89 79.5 394.06 78.73 393.31C77.96 392.56 77.27 391.96 76.73 391.46L75.43 390.31C75.2689 390.182 75.1244 390.034 75 389.87C75.1765 389.972 75.3438 390.089 75.5 390.22L76.86 391.31C77.45 391.78 78.17 392.37 78.95 393.1C79.73 393.83 80.68 394.62 81.62 395.59C82.56 396.56 83.62 397.59 84.7 398.77C85.78 399.95 86.88 401.24 88.03 402.61C90.4635 405.639 92.7078 408.815 94.75 412.12C96.752 415.444 98.5552 418.883 100.15 422.42C100.85 424.07 101.54 425.63 102.08 427.12C102.62 428.61 103.13 430.01 103.55 431.3C103.97 432.59 104.3 433.76 104.61 434.79C104.92 435.82 105.13 436.72 105.3 437.46C105.47 438.2 105.58 438.71 105.68 439.15C105.739 439.345 105.769 439.547 105.77 439.75V439.75Z" fill="#263238"/>
<path id="Vector_13" d="M95.64 414.63C95.5554 414.219 95.5118 413.8 95.51 413.38C95.45 412.57 95.4 411.38 95.35 409.94C95.27 407.04 95.24 403.02 95.41 398.59C95.58 394.16 95.91 390.16 96.22 387.27C96.38 385.82 96.52 384.66 96.64 383.85C96.6675 383.429 96.7447 383.013 96.87 382.61C96.9095 383.029 96.9095 383.451 96.87 383.87C96.8 384.79 96.72 385.94 96.62 387.3C96.4 390.19 96.13 394.19 95.96 398.61C95.79 403.03 95.76 407.03 95.75 409.93C95.75 411.3 95.75 412.45 95.75 413.37C95.7621 413.793 95.7252 414.216 95.64 414.63V414.63Z" fill="#263238"/>
<path id="Vector_14" opacity="0.3" d="M75.5 390.26C75.5 390.26 92.43 397.26 95.06 413.16C95.06 413.16 86.42 398.26 75.5 390.26Z" fill="black"/>
<path id="Vector_15" d="M472.8 158.5C464.977 157.76 457.564 154.663 451.539 149.619C445.515 144.575 441.163 137.821 439.06 130.25C447.352 130.473 455.36 133.323 461.928 138.389C468.497 143.456 473.288 150.476 475.61 158.44" fill="#455A64"/>
<path id="Vector_16" d="M466.27 150.59C465.909 150.338 465.573 150.05 465.27 149.73C464.65 149.14 463.74 148.31 462.6 147.29C460.34 145.29 457.12 142.52 453.37 139.76C449.62 137 446.04 134.76 443.37 133.21C442.06 132.43 440.99 131.82 440.24 131.4C439.843 131.197 439.465 130.959 439.11 130.69C439.536 130.827 439.948 131.004 440.34 131.22C441.11 131.58 442.21 132.15 443.55 132.89C447.046 134.819 450.413 136.974 453.63 139.34C456.85 141.703 459.916 144.268 462.81 147.02C463.92 148.08 464.81 148.95 465.37 149.58C465.705 149.883 466.007 150.222 466.27 150.59V150.59Z" fill="#263238"/>
<path id="Vector_17" d="M66.4701 448.57C56.7657 448.733 47.3584 451.945 39.5801 457.75C47.3701 462.51 59.2001 466.87 68.3201 466.38C77.4975 465.863 86.3065 462.594 93.6001 457C85.6648 451.414 76.1738 448.465 66.4701 448.57V448.57Z" fill="#455A64"/>
<path id="Vector_18" d="M53.8301 457C54.3253 456.845 54.8343 456.738 55.3501 456.68C56.3501 456.5 57.7801 456.29 59.5601 456.08C64.2073 455.549 68.8828 455.305 73.5601 455.35C78.243 455.391 82.9189 455.724 87.5601 456.35C89.3301 456.6 90.7601 456.83 91.7501 457.03C92.2636 457.097 92.7693 457.215 93.2601 457.38C92.7399 457.378 92.221 457.327 91.7101 457.23C90.7101 457.1 89.2901 456.92 87.5101 456.72C83.9601 456.32 79.0401 455.92 73.5801 455.86C68.1201 455.8 63.2001 456.11 59.6401 456.44C57.8701 456.6 56.4301 456.75 55.4301 456.87C54.9012 456.957 54.3661 457 53.8301 457V457Z" fill="#263238"/>
</g>
<g id="face">
<path id="Vector_19" d="M488.89 230.62C485.95 207.81 466.83 189.62 445.33 181.5C421.93 172.63 395.99 173.5 371.14 174.72C367.38 174.954 363.659 173.837 360.65 171.57C352.93 165.57 356.5 156.49 360.09 149.28C367.51 134.4 374.927 119.517 382.34 104.63C386.47 96.33 390.74 86.73 384.24 78.19C381.599 74.8584 377.939 72.484 373.82 71.43C363.53 68.57 353.51 71.88 343.52 74C326.39 77.63 304 74.92 298.16 58.42C296.62 54.07 296.51 49.24 294.36 45.15C290.6 37.97 281.36 35.09 273.36 36.28C265.6 37.44 258.68 41.6 252.02 45.77C188.268 68.5096 129.662 103.676 79.6 149.23C55.45 171.23 21.72 193.01 13.78 224.71C7.05005 251.53 16.79 290 32 313C47.21 336 78.66 347.43 106 351.78C112.68 352.85 119.85 353.39 125.89 356.1V356.04C138.24 361.12 145.98 366.56 145.14 377.21C144.58 384.21 143.08 386.99 140.85 393.57C140.73 394.36 139.91 396.9 139.59 397.86C136.14 408.33 141.37 419.86 151.78 423.48C152.47 423.72 153.18 423.92 153.88 424.09C162.88 426.24 172.36 423.68 180.48 419.33C188.6 414.98 195.66 408.94 203.07 403.47C220.492 390.64 240.013 380.938 260.76 374.8C272.4 371.36 285.76 369.28 296.06 375.62C305.27 381.27 309.75 392.3 311.67 402.94C315.4 418.94 324.98 433.18 340.99 437.22C357 441.26 373.99 436.66 388.99 429.86C405.83 422.24 422.75 409.86 426.22 391.73C427.92 382.87 425.3 372.37 417.39 368.03C415.741 367.18 414.017 366.483 412.24 365.95C410.92 365.84 409.61 365.71 408.31 365.51C399.86 364.26 390.41 358.77 393.47 348.28C394.31 345.576 395.792 343.116 397.79 341.11C415.68 322.49 439.1 310.44 458.47 293.49C476.81 277.56 492 254.68 488.89 230.62Z" fill="#AA6550"/>
<path id="Vector_20" d="M329.19 154.38C329.19 154.57 327.29 154.92 323.84 155.5C320.39 156.08 315.4 156.99 309.28 158.26C303.16 159.53 295.88 161.18 287.78 163.01C279.68 164.84 270.78 166.78 261.24 168.27C252.284 169.711 243.221 170.38 234.15 170.27C226.721 170.176 219.325 169.254 212.1 167.52C207.23 166.358 202.496 164.682 197.98 162.52C197.266 162.205 196.572 161.847 195.9 161.45L194.41 160.59C193.61 160.11 193.21 159.82 193.26 159.74C193.31 159.66 193.78 159.74 194.64 160.12L196.22 160.75C196.84 161.01 197.56 161.31 198.38 161.59C202.968 163.353 207.695 164.734 212.51 165.72C219.644 167.153 226.903 167.873 234.18 167.87C243.112 167.848 252.029 167.129 260.85 165.72C270.25 164.25 279.16 162.38 287.28 160.72C295.4 159.06 302.73 157.54 308.94 156.51C315.15 155.48 320.2 154.83 323.71 154.56C327.22 154.29 329.17 154.21 329.19 154.38Z" fill="#723F33"/>
<path id="Vector_21" d="M235.86 359.28C235.4 359.18 236.56 354.28 236.68 346.33C236.68 345.33 236.68 344.33 236.68 343.21C236.68 342.09 236.56 341 236.5 339.83C236.5 339.25 236.5 338.65 236.4 338.05L236.19 336.22C236.04 334.98 235.95 333.7 235.75 332.4C234.877 326.752 233.624 321.169 232 315.69C228.938 305.718 225.1 296.002 220.52 286.63C217.05 279.39 214.73 274.97 215.07 274.77C215.41 274.57 218.24 278.7 222.16 285.77C227.305 295.047 231.448 304.846 234.52 315C236.182 320.607 237.39 326.339 238.13 332.14C238.31 333.48 238.37 334.8 238.49 336.07C238.49 336.71 238.58 337.34 238.63 337.95C238.68 338.56 238.63 339.19 238.63 339.79C238.63 340.99 238.63 342.14 238.63 343.26C238.63 344.38 238.5 345.44 238.45 346.46C238.4 347.48 238.33 348.46 238.21 349.36C238.09 350.26 237.94 351.12 237.81 351.93C237.68 352.74 237.56 353.47 237.45 354.15C237.34 354.83 237.12 355.44 236.97 355.99C236.44 358.14 236 359.32 235.86 359.28Z" fill="#723F33"/>
<path id="Vector_22" d="M297.54 345.52C297.36 345.57 296.93 344.39 296.3 342.22C296.14 341.67 295.97 341.06 295.79 340.4C295.61 339.74 295.48 339 295.31 338.21C295 336.63 294.58 334.84 294.31 332.82C294.17 331.82 294.03 330.76 293.88 329.67C293.73 328.58 293.68 327.42 293.58 326.23C293.34 323.85 293.33 321.29 293.27 318.6C293.279 306.905 295.26 295.296 299.13 284.26C300.08 281.75 300.94 279.34 301.95 277.17C302.44 276.09 302.88 275.02 303.37 274.03C303.86 273.04 304.37 272.09 304.83 271.19C305.72 269.37 306.71 267.82 307.53 266.43C307.95 265.75 308.32 265.1 308.7 264.52L309.79 262.98C311.11 261.14 311.91 260.17 312.06 260.27C312.21 260.37 311.7 261.52 310.66 263.51C310.39 264 310.1 264.51 309.78 265.15C309.46 265.79 309.15 266.43 308.78 267.15C308.09 268.58 307.23 270.15 306.46 272.01L305.18 274.87C304.74 275.87 304.36 276.93 303.92 278.01C303.01 280.17 302.25 282.56 301.39 285.01C299.666 290.448 298.3 295.993 297.3 301.61C296.374 307.234 295.823 312.913 295.65 318.61C295.65 321.24 295.57 323.75 295.72 326.08C295.77 327.25 295.77 328.39 295.86 329.47C295.95 330.55 296.04 331.59 296.12 332.59C296.23 334.59 296.52 336.37 296.7 337.94C296.79 338.73 296.87 339.47 296.95 340.15C297.03 340.83 297.15 341.43 297.24 341.99C297.61 344.23 297.71 345.48 297.54 345.52Z" fill="#723F33"/>
<path id="Vector_23" d="M174.86 331C174.539 331.072 174.242 331.226 173.999 331.448C173.756 331.67 173.575 331.951 173.474 332.264C173.373 332.577 173.356 332.911 173.423 333.233C173.491 333.555 173.642 333.854 173.86 334.1C174.126 334.306 174.437 334.445 174.767 334.506C175.097 334.566 175.438 334.547 175.759 334.449C176.08 334.351 176.373 334.177 176.614 333.943C176.854 333.708 177.035 333.419 177.14 333.1C177.191 332.796 177.166 332.485 177.066 332.194C176.966 331.903 176.796 331.641 176.569 331.432C176.343 331.224 176.068 331.075 175.769 330.999C175.471 330.924 175.158 330.924 174.86 331V331Z" fill="#723F33"/>
<path id="Vector_24" d="M240.17 246C239.847 246.083 239.55 246.245 239.306 246.472C239.061 246.699 238.878 246.983 238.771 247.299C238.665 247.615 238.639 247.953 238.697 248.281C238.754 248.61 238.893 248.919 239.1 249.18C239.37 249.391 239.687 249.535 240.024 249.599C240.362 249.663 240.709 249.645 241.038 249.547C241.367 249.449 241.668 249.274 241.915 249.036C242.162 248.799 242.349 248.505 242.46 248.18C242.514 247.872 242.491 247.555 242.393 247.258C242.295 246.961 242.125 246.693 241.898 246.477C241.672 246.262 241.395 246.105 241.094 246.022C240.792 245.939 240.475 245.931 240.17 246Z" fill="#723F33"/>
<path id="Vector_25" d="M157.7 321.8C157.379 321.872 157.082 322.026 156.839 322.248C156.596 322.47 156.415 322.751 156.314 323.064C156.213 323.377 156.195 323.711 156.263 324.033C156.331 324.355 156.481 324.654 156.7 324.9C156.965 325.108 157.276 325.249 157.607 325.311C157.938 325.373 158.279 325.354 158.601 325.256C158.923 325.158 159.217 324.983 159.457 324.747C159.697 324.511 159.876 324.22 159.98 323.9C160.031 323.596 160.006 323.285 159.906 322.994C159.806 322.703 159.635 322.441 159.409 322.232C159.183 322.024 158.908 321.875 158.609 321.8C158.311 321.724 157.998 321.724 157.7 321.8V321.8Z" fill="#723F33"/>
<path id="Vector_26" d="M355.93 331.78C355.609 331.852 355.312 332.006 355.069 332.228C354.826 332.45 354.645 332.731 354.544 333.044C354.443 333.357 354.425 333.691 354.493 334.013C354.561 334.335 354.711 334.634 354.93 334.88C355.196 335.086 355.507 335.225 355.837 335.286C356.167 335.346 356.507 335.327 356.829 335.229C357.15 335.131 357.443 334.957 357.684 334.723C357.924 334.488 358.104 334.199 358.21 333.88C358.261 333.576 358.236 333.265 358.136 332.974C358.036 332.683 357.865 332.421 357.639 332.212C357.413 332.004 357.138 331.855 356.839 331.779C356.541 331.704 356.228 331.704 355.93 331.78V331.78Z" fill="#723F33"/>
<path id="Vector_27" d="M363.34 357.52C363.019 357.592 362.722 357.746 362.479 357.968C362.236 358.19 362.055 358.471 361.954 358.784C361.853 359.097 361.836 359.431 361.903 359.753C361.971 360.075 362.122 360.374 362.34 360.62C362.606 360.826 362.917 360.965 363.247 361.026C363.577 361.086 363.918 361.067 364.239 360.969C364.56 360.871 364.853 360.697 365.094 360.463C365.334 360.228 365.515 359.939 365.62 359.62C365.671 359.316 365.646 359.005 365.546 358.714C365.446 358.423 365.276 358.161 365.049 357.952C364.823 357.744 364.548 357.595 364.249 357.52C363.951 357.444 363.638 357.444 363.34 357.52Z" fill="#723F33"/>
<path id="Vector_28" d="M395.37 375.89C395.049 375.962 394.752 376.116 394.509 376.338C394.266 376.56 394.085 376.841 393.984 377.154C393.883 377.467 393.865 377.801 393.933 378.123C394.001 378.445 394.151 378.744 394.37 378.99C394.635 379.196 394.946 379.335 395.277 379.396C395.607 379.456 395.947 379.437 396.269 379.339C396.59 379.241 396.883 379.067 397.123 378.833C397.364 378.598 397.544 378.309 397.65 377.99C397.701 377.686 397.676 377.375 397.576 377.084C397.476 376.793 397.305 376.531 397.079 376.322C396.852 376.114 396.578 375.965 396.279 375.889C395.981 375.814 395.668 375.814 395.37 375.89Z" fill="#723F33"/>
<path id="Vector_29" d="M386 332.77C385.679 332.842 385.382 332.996 385.139 333.218C384.896 333.44 384.715 333.721 384.614 334.034C384.513 334.347 384.495 334.681 384.563 335.003C384.631 335.325 384.781 335.624 385 335.87C385.265 336.078 385.576 336.219 385.907 336.281C386.238 336.343 386.579 336.324 386.901 336.226C387.223 336.128 387.517 335.953 387.757 335.717C387.997 335.481 388.176 335.19 388.28 334.87C388.331 334.566 388.306 334.255 388.206 333.964C388.106 333.673 387.935 333.411 387.709 333.202C387.483 332.994 387.208 332.845 386.909 332.77C386.611 332.694 386.298 332.694 386 332.77V332.77Z" fill="#723F33"/>
<path id="Vector_30" d="M331.85 351.34C331.529 351.412 331.232 351.566 330.989 351.788C330.746 352.01 330.565 352.291 330.464 352.604C330.363 352.917 330.345 353.251 330.413 353.573C330.481 353.895 330.631 354.194 330.85 354.44C331.115 354.646 331.426 354.785 331.757 354.846C332.087 354.906 332.427 354.887 332.749 354.789C333.07 354.691 333.363 354.517 333.603 354.283C333.844 354.048 334.024 353.759 334.13 353.44C334.181 353.136 334.156 352.825 334.056 352.534C333.956 352.243 333.785 351.981 333.559 351.772C333.332 351.564 333.058 351.415 332.759 351.339C332.461 351.264 332.148 351.264 331.85 351.34V351.34Z" fill="#723F33"/>
<path id="Vector_31" d="M345.43 383C345.109 383.072 344.812 383.226 344.569 383.448C344.326 383.67 344.145 383.951 344.044 384.264C343.943 384.577 343.925 384.911 343.993 385.233C344.061 385.555 344.211 385.854 344.43 386.1C344.696 386.306 345.007 386.445 345.337 386.506C345.667 386.566 346.007 386.547 346.329 386.449C346.65 386.351 346.943 386.177 347.184 385.943C347.424 385.708 347.604 385.419 347.71 385.1C347.761 384.796 347.736 384.485 347.636 384.194C347.536 383.903 347.365 383.641 347.139 383.432C346.913 383.224 346.638 383.075 346.339 382.999C346.041 382.924 345.728 382.924 345.43 383Z" fill="#723F33"/>
<path id="Vector_32" d="M175.27 351.71C174.949 351.782 174.652 351.936 174.409 352.158C174.166 352.38 173.985 352.661 173.884 352.974C173.783 353.287 173.765 353.621 173.833 353.943C173.901 354.265 174.051 354.564 174.27 354.81C174.536 355.016 174.847 355.155 175.177 355.216C175.507 355.276 175.848 355.257 176.169 355.159C176.49 355.061 176.783 354.887 177.024 354.653C177.264 354.418 177.445 354.129 177.55 353.81C177.601 353.506 177.576 353.195 177.476 352.904C177.376 352.613 177.205 352.351 176.979 352.142C176.753 351.934 176.478 351.785 176.179 351.71C175.881 351.634 175.568 351.634 175.27 351.71Z" fill="#723F33"/>
<path id="Vector_33" d="M247.39 272.66C247.057 272.728 246.748 272.882 246.493 273.107C246.239 273.332 246.048 273.62 245.94 273.942C245.831 274.264 245.809 274.609 245.876 274.942C245.943 275.275 246.096 275.585 246.32 275.84C246.59 276.051 246.907 276.195 247.244 276.259C247.582 276.323 247.929 276.305 248.258 276.207C248.587 276.109 248.888 275.934 249.135 275.696C249.382 275.458 249.569 275.165 249.68 274.84C249.734 274.532 249.711 274.215 249.613 273.918C249.515 273.621 249.345 273.353 249.118 273.137C248.892 272.922 248.615 272.765 248.314 272.682C248.012 272.599 247.695 272.591 247.39 272.66V272.66Z" fill="#723F33"/>
<path id="Vector_34" d="M280.58 289.49C280.259 289.562 279.962 289.716 279.719 289.938C279.476 290.16 279.295 290.441 279.194 290.754C279.093 291.067 279.075 291.401 279.143 291.723C279.211 292.045 279.361 292.344 279.58 292.59C279.845 292.796 280.156 292.935 280.487 292.996C280.817 293.056 281.157 293.037 281.479 292.939C281.8 292.841 282.093 292.667 282.333 292.433C282.574 292.198 282.754 291.909 282.86 291.59C282.911 291.286 282.885 290.975 282.786 290.684C282.686 290.393 282.515 290.131 282.289 289.922C282.062 289.714 281.788 289.565 281.489 289.49C281.191 289.414 280.878 289.414 280.58 289.49V289.49Z" fill="#723F33"/>
<path id="Vector_35" d="M264.42 242.82C264.099 242.892 263.802 243.046 263.559 243.268C263.316 243.49 263.135 243.771 263.034 244.084C262.933 244.397 262.915 244.731 262.983 245.053C263.051 245.375 263.201 245.674 263.42 245.92C263.686 246.126 263.997 246.265 264.327 246.326C264.657 246.386 264.997 246.367 265.319 246.269C265.64 246.171 265.933 245.997 266.174 245.763C266.414 245.528 266.594 245.239 266.7 244.92C266.751 244.616 266.726 244.305 266.626 244.014C266.526 243.723 266.355 243.461 266.129 243.252C265.903 243.044 265.628 242.895 265.329 242.82C265.031 242.744 264.718 242.744 264.42 242.82V242.82Z" fill="#723F33"/>
<path id="Vector_36" d="M243 219.46C242.679 219.532 242.382 219.686 242.139 219.908C241.896 220.13 241.715 220.411 241.614 220.724C241.513 221.037 241.495 221.371 241.563 221.693C241.631 222.015 241.781 222.314 242 222.56C242.266 222.766 242.577 222.905 242.907 222.966C243.237 223.026 243.578 223.007 243.899 222.909C244.22 222.811 244.513 222.637 244.754 222.403C244.994 222.168 245.174 221.879 245.28 221.56C245.331 221.256 245.306 220.945 245.206 220.654C245.106 220.363 244.935 220.101 244.709 219.892C244.483 219.684 244.208 219.535 243.909 219.459C243.611 219.384 243.298 219.384 243 219.46V219.46Z" fill="#723F33"/>
<path id="Vector_37" d="M155.8 344.53C155.477 344.599 155.177 344.752 154.93 344.972C154.683 345.192 154.497 345.473 154.391 345.787C154.285 346.1 154.263 346.436 154.326 346.761C154.389 347.086 154.535 347.389 154.75 347.64C155.016 347.846 155.327 347.985 155.657 348.046C155.987 348.106 156.328 348.087 156.649 347.989C156.97 347.891 157.263 347.717 157.504 347.483C157.744 347.248 157.925 346.959 158.03 346.64C158.08 346.341 158.056 346.034 157.959 345.747C157.863 345.459 157.697 345.2 157.477 344.991C157.257 344.783 156.989 344.632 156.696 344.551C156.404 344.471 156.096 344.464 155.8 344.53Z" fill="#723F33"/>
<path id="Vector_38" d="M96.0001 326.36C95.679 326.432 95.3822 326.586 95.1391 326.808C94.896 327.03 94.715 327.311 94.614 327.624C94.513 327.937 94.4954 328.271 94.5632 328.593C94.6309 328.915 94.7815 329.214 95.0001 329.46C95.2656 329.666 95.5766 329.805 95.907 329.866C96.2374 329.926 96.5775 329.907 96.8988 329.809C97.2202 329.711 97.5133 329.537 97.7536 329.303C97.994 329.068 98.1745 328.779 98.2801 328.46C98.3311 328.156 98.3057 327.845 98.206 327.554C98.1063 327.263 97.9354 327.001 97.709 326.792C97.4826 326.584 97.2078 326.435 96.9093 326.359C96.6109 326.284 96.2984 326.284 96.0001 326.36V326.36Z" fill="#723F33"/>
<path id="Vector_39" d="M130.82 333.12C130.499 333.192 130.202 333.346 129.959 333.568C129.716 333.79 129.535 334.071 129.434 334.384C129.333 334.697 129.316 335.031 129.383 335.353C129.451 335.675 129.602 335.974 129.82 336.22C130.086 336.426 130.397 336.565 130.727 336.626C131.057 336.686 131.398 336.667 131.719 336.569C132.04 336.471 132.333 336.297 132.574 336.063C132.814 335.828 132.995 335.539 133.1 335.22C133.151 334.916 133.126 334.605 133.026 334.314C132.926 334.023 132.756 333.761 132.529 333.552C132.303 333.344 132.028 333.195 131.729 333.119C131.431 333.044 131.118 333.044 130.82 333.12V333.12Z" fill="#723F33"/>
<path id="Vector_40" d="M89.0001 257.25C88.4154 257.392 87.8049 257.392 87.2201 257.25C85.7858 257.035 84.4178 256.501 83.2169 255.687C82.0159 254.874 81.0124 253.802 80.2801 252.55C79.9473 252.051 79.7288 251.484 79.6401 250.89C80.0084 251.352 80.3426 251.84 80.6401 252.35C81.4266 253.491 82.4165 254.477 83.5601 255.26C84.7082 256.033 85.99 256.586 87.3401 256.89C87.9011 256.972 88.4557 257.092 89.0001 257.25V257.25Z" fill="#263238"/>
<path id="Vector_41" d="M96.51 255.58C96.51 255.64 96 255.64 95.24 255.39C94.2582 255.036 93.3679 254.467 92.6342 253.725C91.9006 252.983 91.3422 252.086 91 251.1C90.76 250.33 90.75 249.83 90.82 249.82C91.3366 251.117 92.0742 252.315 93 253.36C94.0349 254.295 95.222 255.046 96.51 255.58V255.58Z" fill="#263238"/>
<path id="Vector_42" d="M213.81 242.66C192.243 242.494 171.022 237.227 151.88 227.29C135.78 218.91 121.32 207.29 104.34 200.86C93.5531 196.839 82.0736 195.005 70.5707 195.465C59.0677 195.925 47.7714 198.67 37.3401 203.54C48.7001 190.37 64.4201 180.7 81.5901 178C98.9401 175.31 116.51 179.7 133.51 184.05L192.65 199.2C196.12 200.09 199.73 201.06 202.39 203.47C209.83 210.22 205.55 223.64 211.84 231.47C212.9 225.7 215.07 213.95 217.06 208.77C216.18 216.65 216.13 230.77 215.26 238.66" fill="#263238"/>
<path id="Vector_43" d="M228.9 211.22C229.47 211.76 224.1 217.48 220.65 226.22C217.2 234.96 217.01 242.79 216.22 242.79C215.89 242.79 215.46 240.79 215.55 237.58C215.617 235.684 215.845 233.797 216.23 231.94C216.708 229.658 217.377 227.42 218.23 225.25C219.108 223.09 220.168 221.009 221.4 219.03C222.413 217.425 223.557 215.907 224.82 214.49C227 212.11 228.67 211 228.9 211.22Z" fill="#263238"/>
<path id="Vector_44" d="M175.54 196.64C175.54 196.5 176.34 196.44 177.54 197.08C179.13 198.092 180.369 199.569 181.09 201.31C183.03 205.58 183.82 211.7 184.75 218.31C185.156 221.373 185.747 224.409 186.52 227.4C187.161 229.817 188.046 232.162 189.16 234.4C191.09 238.18 193.08 240.06 192.8 240.4C192.52 240.74 190.09 239.19 187.56 235.35C186.139 233.103 185.019 230.679 184.23 228.14C183.276 225.075 182.59 221.933 182.18 218.75C181.74 215.44 181.32 212.3 180.93 209.42C180.628 206.94 180.113 204.491 179.39 202.1C178.922 200.555 178.085 199.148 176.95 198C176.11 197.13 175.48 196.84 175.54 196.64Z" fill="#455A64"/>
<path id="Vector_45" d="M159.34 191.51C159.34 191.51 159.47 191.63 159.67 191.88C159.974 192.24 160.258 192.618 160.52 193.01C161.5 194.442 162.331 195.97 163 197.57C163.978 199.947 164.741 202.407 165.28 204.92C165.93 207.75 166.42 210.92 166.95 214.18C167.413 217.267 168.051 220.325 168.86 223.34C169.523 225.797 170.452 228.174 171.63 230.43C172.428 231.948 173.387 233.377 174.49 234.69C175.28 235.62 175.76 236.09 175.73 236.13C175.7 236.17 175.58 236.03 175.35 235.82C175.12 235.61 174.74 235.29 174.35 234.82C173.185 233.538 172.178 232.121 171.35 230.6C170.11 228.343 169.133 225.95 168.44 223.47C167.588 220.44 166.92 217.361 166.44 214.25C165.91 210.96 165.44 207.83 164.82 205.02C164.304 202.524 163.581 200.076 162.66 197.7C162.029 196.104 161.256 194.568 160.35 193.11C159.71 192.09 159.31 191.54 159.34 191.51Z" fill="#455A64"/>
<path id="Vector_46" d="M190.2 196.83C190.2 196.83 190.32 196.93 190.51 197.16C190.784 197.495 191.028 197.853 191.24 198.23C192.031 199.612 192.563 201.127 192.81 202.7C193.167 205.02 193.167 207.38 192.81 209.7C192.46 212.33 191.81 215.16 191.37 218.15C190.676 223.279 190.848 228.488 191.88 233.56C192.28 235.5 192.71 237.06 193.04 238.12C193.237 238.665 193.394 239.223 193.51 239.79C193.427 239.662 193.36 239.524 193.31 239.38C193.2 239.11 193.03 238.71 192.84 238.18C192.31 236.694 191.87 235.178 191.52 233.64C190.369 228.535 190.142 223.265 190.85 218.08C191.27 215.08 191.97 212.23 192.33 209.63C192.717 207.346 192.764 205.018 192.47 202.72C192.26 201.176 191.79 199.678 191.08 198.29C190.55 197.35 190.16 196.86 190.2 196.83Z" fill="#455A64"/>
<path id="Vector_47" d="M105.51 180.35C106.013 180.563 106.498 180.817 106.96 181.11C107.42 181.36 107.96 181.69 108.6 182.11C109.24 182.53 109.95 182.97 110.69 183.56C111.43 184.15 112.27 184.74 113.11 185.48C113.95 186.22 114.81 187.01 115.72 187.87C117.625 189.794 119.377 191.863 120.96 194.06C122.51 196.281 123.881 198.621 125.06 201.06C125.57 202.2 126.06 203.27 126.45 204.32C126.84 205.37 127.18 206.32 127.45 207.23C127.72 208.14 127.93 208.96 128.12 209.69C128.286 210.309 128.419 210.937 128.52 211.57C128.644 212.102 128.721 212.644 128.75 213.19C128.572 212.673 128.428 212.146 128.32 211.61C128.21 211.1 128.06 210.47 127.84 209.76C127.62 209.05 127.43 208.23 127.1 207.35C126.77 206.47 126.47 205.49 126.04 204.48C125.61 203.47 125.14 202.39 124.63 201.27C123.439 198.866 122.072 196.553 120.54 194.35C118.976 192.174 117.251 190.119 115.38 188.2C114.49 187.34 113.67 186.5 112.82 185.79C111.97 185.08 111.21 184.42 110.47 183.79C109.73 183.16 109.04 182.73 108.47 182.29C107.9 181.85 107.33 181.5 106.88 181.22C106.4 180.968 105.942 180.677 105.51 180.35V180.35Z" fill="#455A64"/>
<path id="Vector_48" d="M115.12 203C115.02 203 114.56 201.19 113.39 198.37C112.706 196.727 111.921 195.127 111.04 193.58C109.943 191.694 108.717 189.886 107.37 188.17C105.994 186.473 104.501 184.876 102.9 183.39C101.588 182.184 100.202 181.062 98.75 180.03C96.26 178.27 94.57 177.41 94.62 177.32C95.0385 177.468 95.4433 177.652 95.83 177.87C96.22 178.06 96.68 178.31 97.2 178.63C97.72 178.95 98.33 179.28 98.96 179.73C100.458 180.73 101.885 181.832 103.23 183.03C106.526 185.984 109.304 189.469 111.45 193.34C112.326 194.915 113.091 196.549 113.74 198.23C114.03 198.94 114.23 199.61 114.42 200.23C114.589 200.726 114.732 201.23 114.85 201.74C114.986 202.149 115.077 202.571 115.12 203V203Z" fill="#455A64"/>
<path id="Vector_49" d="M78.6301 175.67C78.9185 175.993 79.1732 176.345 79.3901 176.72C79.8401 177.42 80.5101 178.41 81.3901 179.62C85.8961 185.908 91.5032 191.329 97.9401 195.62C99.1801 196.45 100.19 197.1 100.94 197.52C101.327 197.721 101.689 197.966 102.02 198.25C101.609 198.107 101.214 197.922 100.84 197.7C100.1 197.32 99.0501 196.7 97.7801 195.93C91.1779 191.762 85.5091 186.274 81.1301 179.81C80.3001 178.57 79.6601 177.54 79.2601 176.81C79.0123 176.452 78.8012 176.07 78.6301 175.67V175.67Z" fill="#455A64"/>
<path id="Vector_50" d="M424.91 120.28C423.594 118.267 421.838 116.579 419.775 115.342C417.712 114.105 415.396 113.352 413 113.14V113.14C412.115 113.088 411.228 113.122 410.35 113.24C402.974 113.676 396.031 116.863 390.89 122.17C385.2 128.17 382.45 137.17 384.81 145.06C387.17 152.95 395 159.19 403.3 158.65C408.79 158.29 413.78 155.21 417.8 151.44C422.155 147.567 425.362 142.572 427.07 137C428.62 131.41 428.08 125.12 424.91 120.28Z" fill="#AA6550"/>
<path id="Vector_51" d="M298.26 242.72C319.827 242.554 341.048 237.287 360.19 227.35C376.3 218.96 390.76 207.35 407.74 200.92C418.526 196.895 430.006 195.059 441.51 195.519C453.013 195.979 464.31 198.726 474.74 203.6C463.41 190.43 447.68 180.76 430.51 178.1C413.17 175.41 395.6 179.79 378.6 184.15L319.43 199.3C315.96 200.19 312.34 201.15 309.69 203.56C302.24 210.32 306.52 223.74 300.23 231.56C299.179 225.772 297.15 220.206 294.23 215.1C295.11 222.98 295.983 230.86 296.85 238.74" fill="#263238"/>
<path id="Vector_52" d="M348.1 194.11C348.1 194.31 347.1 194.48 345.54 195.06C343.29 195.881 341.216 197.123 339.43 198.72C336.787 201.099 334.651 203.986 333.15 207.21C331.314 211.269 329.757 215.449 328.49 219.72C327.161 224.145 325.287 228.388 322.91 232.35C321.804 234.092 320.491 235.694 319 237.12C317.686 238.36 316.213 239.419 314.62 240.27C312.341 241.555 309.767 242.227 307.15 242.22C305.31 242.15 304.36 241.75 304.39 241.6C304.42 241.45 305.39 241.45 307.09 241.2C309.447 240.836 311.699 239.977 313.7 238.68C315.077 237.798 316.345 236.757 317.48 235.58C318.781 234.217 319.918 232.706 320.87 231.08C323.021 227.216 324.741 223.129 326 218.89C327.304 214.497 328.976 210.222 331 206.11C331.948 204.297 333.077 202.585 334.37 201C335.517 199.619 336.819 198.374 338.25 197.29C340.298 195.684 342.697 194.584 345.25 194.08C347.08 193.78 348.09 194 348.1 194.11Z" fill="#455A64"/>
<path id="Vector_53" d="M365.59 186.12C365.59 186.12 364.84 186.65 363.59 187.7C361.842 189.213 360.299 190.947 359 192.86C357.106 195.711 355.561 198.78 354.4 202C353.05 205.63 351.96 209.76 350.73 214.07C349.649 218.162 348.175 222.141 346.33 225.95C344.769 229.052 342.697 231.868 340.2 234.28C338.507 235.896 336.548 237.209 334.41 238.16C333.828 238.409 333.23 238.62 332.62 238.79C332.413 238.865 332.198 238.919 331.98 238.95C331.98 238.89 332.85 238.67 334.33 237.95C336.405 236.926 338.303 235.575 339.95 233.95C342.375 231.536 344.385 228.738 345.9 225.67C347.707 221.876 349.157 217.923 350.23 213.86C351.46 209.56 352.56 205.42 353.95 201.77C355.144 198.521 356.74 195.433 358.7 192.58C360.039 190.668 361.642 188.954 363.46 187.49C363.956 187.095 364.473 186.728 365.01 186.39C365.195 186.284 365.389 186.193 365.59 186.12V186.12Z" fill="#455A64"/>
<path id="Vector_54" d="M375 184.4C375 184.4 374.39 184.97 373.31 186.01C371.796 187.5 370.438 189.142 369.26 190.91C367.528 193.536 366.051 196.322 364.85 199.23C363.45 202.51 362.17 206.23 360.85 210.1C359.611 213.779 358.134 217.373 356.43 220.86C355.027 223.714 353.277 226.384 351.22 228.81C349.831 230.445 348.234 231.89 346.47 233.11C345.991 233.441 345.493 233.745 344.98 234.02C344.814 234.138 344.632 234.232 344.44 234.3C344.44 234.25 345.14 233.83 346.35 232.94C348.051 231.679 349.593 230.214 350.94 228.58C352.932 226.141 354.63 223.476 356 220.64C357.671 217.159 359.127 213.579 360.36 209.92C361.72 206.04 363.02 202.33 364.45 199.05C365.679 196.119 367.203 193.321 369 190.7C370.212 188.93 371.625 187.306 373.21 185.86C373.634 185.463 374.081 185.092 374.55 184.75C374.686 184.616 374.837 184.499 375 184.4V184.4Z" fill="#455A64"/>
<path id="Vector_55" d="M415.5 177.35C413.09 178.075 410.795 179.136 408.68 180.5C406.413 182.021 404.352 183.829 402.55 185.88C400.342 188.39 398.361 191.09 396.63 193.95C394.77 196.95 393.12 199.95 391.53 202.63C390.15 205.011 388.641 207.314 387.01 209.53C385.909 211.024 384.699 212.434 383.39 213.75C382.94 214.23 382.54 214.55 382.29 214.75C382.04 214.95 381.89 215.09 381.87 215.07C381.85 215.05 382.36 214.53 383.24 213.57C384.485 212.21 385.644 210.774 386.71 209.27C388.08 207.38 389.56 205.02 391.12 202.35C392.68 199.68 394.31 196.69 396.19 193.64C397.935 190.751 399.944 188.029 402.19 185.51C404.035 183.451 406.147 181.649 408.47 180.15C410.025 179.144 411.707 178.347 413.47 177.78C413.953 177.627 414.443 177.5 414.94 177.4C415.123 177.353 415.312 177.336 415.5 177.35V177.35Z" fill="#455A64"/>
<path id="Vector_56" d="M430.09 180.16C428.013 180.053 425.93 180.177 423.88 180.53C418.963 181.606 414.415 183.955 410.69 187.34C407.006 190.771 403.777 194.659 401.08 198.91L398.57 202.75C398.276 203.237 397.942 203.699 397.57 204.13C397.791 203.612 398.055 203.114 398.36 202.64C398.9 201.7 399.69 200.35 400.73 198.71C403.375 194.38 406.61 190.439 410.34 187C414.126 183.551 418.785 181.206 423.81 180.22C425.331 179.952 426.879 179.868 428.42 179.97C428.839 179.995 429.257 180.045 429.67 180.12C429.811 180.109 429.953 180.122 430.09 180.16Z" fill="#455A64"/>
<path id="Vector_57" d="M308.87 203.77C309.11 204.261 309.304 204.773 309.45 205.3C309.669 205.905 309.853 206.523 310 207.15C310.17 207.88 310.41 208.7 310.55 209.64C310.738 210.653 310.875 211.674 310.96 212.7C311.1 213.81 311.1 215 311.13 216.25C311.111 218.969 310.819 221.679 310.26 224.34C309.667 226.993 308.817 229.582 307.72 232.07C307.17 233.2 306.72 234.28 306.09 235.23C305.592 236.133 305.045 237.008 304.45 237.85C303.974 238.542 303.463 239.209 302.92 239.85C302.532 240.364 302.111 240.851 301.66 241.31C301.306 241.728 300.918 242.116 300.5 242.47C300.794 242.011 301.129 241.579 301.5 241.18C301.919 240.697 302.313 240.193 302.68 239.67C303.11 239.07 303.68 238.41 304.13 237.61C304.702 236.761 305.229 235.884 305.71 234.98C306.27 233.98 306.71 232.98 307.27 231.84C309.437 226.911 310.587 221.594 310.65 216.21C310.65 214.97 310.65 213.8 310.52 212.7C310.456 211.695 310.339 210.693 310.17 209.7C310.056 208.866 309.899 208.038 309.7 207.22C309.587 206.592 309.437 205.97 309.25 205.36C309.084 204.84 308.957 204.309 308.87 203.77V203.77Z" fill="#455A64"/>
<path id="Vector_58" d="M321.28 277C320.65 267.94 324.38 259 330.05 251.86C335.72 244.72 343.24 239.37 351 234.66C364 226.75 378.39 220.42 393.58 219.53C408.77 218.64 424.89 223.93 434.37 235.83C434.583 236.034 434.75 236.279 434.862 236.551C434.974 236.823 435.028 237.116 435.02 237.41C434.82 238.59 433.14 238.59 432.02 238.31C418.93 235.18 405.24 236.44 391.84 237.72C380.33 238.82 368.55 239.99 358.12 244.98C349.06 249.32 341.56 256.29 334.23 263.15C329.726 267.179 325.484 271.491 321.53 276.06" fill="#723F33"/>
<path id="Vector_59" d="M374 290.69C374.068 289.03 374.48 287.402 375.21 285.91C375.773 284.346 376.643 282.912 377.77 281.69C377.9 281.78 376.72 283.63 375.69 286.11C374.66 288.59 374.11 290.72 374 290.69Z" fill="#263238"/>
<path id="Vector_60" d="M381.51 288.18C381.289 285.791 381.417 283.382 381.89 281.03C382.111 283.419 381.983 285.828 381.51 288.18Z" fill="#263238"/>
<path id="Vector_61" d="M388.59 289.07C388.44 289.07 388.24 287.26 387.59 285.07C386.94 282.88 386.17 281.26 386.31 281.19C387.187 282.308 387.799 283.611 388.1 285C388.568 286.302 388.735 287.694 388.59 289.07V289.07Z" fill="#263238"/>
<path id="Vector_62" d="M395.53 287.85C394.777 285.957 393.912 284.11 392.94 282.32C391.817 280.62 390.595 278.987 389.28 277.43C392.602 279.992 394.834 283.713 395.53 287.85V287.85Z" fill="#263238"/>
<path id="Vector_63" d="M396.77 275.12C396.113 275.281 395.427 275.281 394.77 275.12C393.65 274.99 392.77 274.77 392.77 274.63C393.443 274.463 394.147 274.463 394.82 274.63C395.9 274.76 396.79 275 396.77 275.12Z" fill="#263238"/>
<path id="Vector_64" d="M366.48 274.21C367.526 273.758 368.651 273.517 369.79 273.5C370.917 273.313 372.07 273.358 373.18 273.63C372.082 273.869 370.963 274 369.84 274.02C368.73 274.207 367.604 274.271 366.48 274.21V274.21Z" fill="#263238"/>
<path id="Vector_65" d="M377.2 266.61C377.12 266.75 374.7 265.4 371.49 264.34C368.28 263.28 365.55 262.87 365.58 262.72C369.741 262.906 373.766 264.253 377.2 266.61V266.61Z" fill="#263238"/>
<path id="Vector_66" d="M396.21 289.35C398.227 288.072 399.897 286.314 401.071 284.235C402.245 282.155 402.887 279.818 402.94 277.43C403.092 274.066 402.755 270.697 401.94 267.43L401.25 264.43C401.143 264.065 401.076 263.689 401.05 263.31C401.229 263.648 401.363 264.008 401.45 264.38C401.67 265.08 401.97 266.09 402.3 267.38C403.242 270.677 403.644 274.105 403.49 277.53C403.282 280.999 401.944 284.304 399.68 286.94C398.981 287.723 398.168 288.397 397.27 288.94C396.942 289.135 396.584 289.273 396.21 289.35V289.35Z" fill="white"/>
<path id="Vector_67" d="M447.14 253C446.795 253.803 446.333 254.551 445.77 255.22C443.165 258.594 439.614 261.114 435.57 262.46C434.746 262.77 433.879 262.953 433 263C435.79 262.08 438.444 260.788 440.89 259.16C443.237 257.392 445.338 255.321 447.14 253V253Z" fill="#263238"/>
<path id="Vector_68" d="M457.18 254.64C457.051 254.916 456.879 255.169 456.67 255.39C456.156 256.032 455.605 256.643 455.02 257.22C451.099 261.055 446.086 263.581 440.67 264.45C439.856 264.579 439.034 264.659 438.21 264.69C437.911 264.729 437.609 264.729 437.31 264.69C437.31 264.59 438.58 264.51 440.6 264.11C445.879 263.072 450.775 260.614 454.76 257C456.29 255.56 457.11 254.58 457.18 254.64Z" fill="#263238"/>
<path id="Vector_69" d="M436.4 249.06C436.398 249.823 436.266 250.581 436.01 251.3C435.485 253.078 434.689 254.764 433.65 256.3C432.608 257.82 431.336 259.17 429.88 260.3C429.302 260.804 428.643 261.207 427.93 261.49C432.076 258.43 435.062 254.056 436.4 249.08V249.06Z" fill="#263238"/>
<path id="Vector_70" d="M431.73 248.26C431.743 249.002 431.621 249.741 431.37 250.44C430.864 252.155 430.069 253.772 429.02 255.22C427.981 256.675 426.699 257.941 425.23 258.96C424.628 259.41 423.951 259.749 423.23 259.96C425.246 258.54 427.039 256.828 428.55 254.88C429.938 252.847 431.011 250.615 431.73 248.26V248.26Z" fill="#263238"/>
<path id="Vector_71" d="M424.19 243.36C424.183 244.18 424.009 244.989 423.68 245.74C422.987 247.594 421.971 249.31 420.68 250.81C419.406 252.303 418 253.678 416.48 254.92C415.871 255.479 415.2 255.965 414.48 256.37C414.987 255.735 415.56 255.155 416.19 254.64C417.605 253.334 418.94 251.945 420.19 250.48C421.439 249.013 422.47 247.372 423.25 245.61C423.92 244.25 424.11 243.34 424.19 243.36Z" fill="#263238"/>
<path id="Vector_72" d="M413.42 245.31C413.215 246.885 412.653 248.392 411.776 249.717C410.899 251.041 409.73 252.147 408.36 252.95C409.43 251.838 410.432 250.663 411.36 249.43C412.127 248.098 412.815 246.722 413.42 245.31V245.31Z" fill="#263238"/>
<path id="Vector_73" d="M404.19 247C404.376 248.266 404.188 249.559 403.65 250.72C403.276 251.94 402.549 253.023 401.56 253.83C401.44 253.74 402.45 252.41 403.17 250.53C403.89 248.65 404 247 404.19 247Z" fill="#263238"/>
<path id="Vector_74" d="M428.87 294.48C428.744 294.001 428.653 293.513 428.6 293.02C428.353 291.88 427.891 290.797 427.24 289.83C426.581 288.866 425.742 288.037 424.77 287.39C424.02 286.9 423.49 286.68 423.52 286.6C424.034 286.629 424.531 286.795 424.96 287.08C426.045 287.673 426.974 288.515 427.669 289.538C428.365 290.56 428.807 291.733 428.96 292.96C429.067 293.466 429.036 293.991 428.87 294.48V294.48Z" fill="#263238"/>
<path id="Vector_75" d="M434.75 288.45C434.67 288.45 434.55 287.88 434.15 287.04C433.647 285.944 432.88 284.988 431.919 284.259C430.958 283.53 429.832 283.049 428.64 282.86C427.72 282.7 427.13 282.74 427.12 282.66C427.615 282.462 428.155 282.407 428.68 282.5C429.97 282.596 431.204 283.062 432.235 283.842C433.265 284.623 434.049 285.685 434.49 286.9C434.72 287.382 434.81 287.919 434.75 288.45Z" fill="#263238"/>
<path id="Vector_76" d="M437.89 282.41C436.879 281.187 435.643 280.169 434.25 279.41C432.79 278.79 431.226 278.451 429.64 278.41C430.081 278.198 430.573 278.111 431.06 278.16C432.245 278.163 433.414 278.434 434.48 278.954C435.545 279.473 436.478 280.228 437.21 281.16C437.76 281.85 438 282.38 437.89 282.41Z" fill="#263238"/>
<path id="Vector_77" d="M422.64 299.28C422.51 298.051 422.105 296.866 421.456 295.814C420.807 294.761 419.93 293.868 418.89 293.2C418.89 293.14 419.35 293.2 419.96 293.6C420.752 294.083 421.417 294.748 421.9 295.54C422.388 296.331 422.686 297.224 422.77 298.15C422.81 298.86 422.7 299.29 422.64 299.28Z" fill="#263238"/>
<path id="Vector_78" d="M416.19 303.59C415.979 302.344 415.681 301.115 415.3 299.91C414.766 298.764 414.151 297.658 413.46 296.6C414.505 297.411 415.311 298.49 415.792 299.723C416.272 300.956 416.41 302.295 416.19 303.6V303.59Z" fill="#263238"/>
<path id="Vector_79" d="M410.13 305.6C410.274 304.576 410.361 303.544 410.39 302.51C410.252 301.499 410.052 300.497 409.79 299.51C410.536 300.329 410.937 301.403 410.91 302.51C411.046 303.601 410.768 304.704 410.13 305.6V305.6Z" fill="#263238"/>
<path id="Vector_80" d="M58.3701 252.15C61.0801 245.97 66.2301 241.07 72.1101 237.76C77.9901 234.45 84.5801 232.62 91.2101 231.36C109.11 227.97 128.09 228.74 144.94 235.67C161.79 242.6 176.28 256.1 182.44 273.24C182.788 273.935 182.853 274.738 182.62 275.48C181.95 276.92 179.78 276.48 178.38 275.7C169.84 271 163.38 263.3 155.51 257.56C142.03 247.73 124.84 244.07 108.16 244.24C91.4801 244.41 75.0501 248.11 58.7801 251.8" fill="#723F33"/>
<path id="Vector_81" d="M104.25 288.69C105.078 285.472 106.859 282.579 109.36 280.39C109.48 280.49 108.02 282.14 106.62 284.39C105.22 286.64 104.4 288.75 104.25 288.69Z" fill="#263238"/>
<path id="Vector_82" d="M112.1 287.37C112.087 286.166 112.248 284.967 112.58 283.81C112.751 282.619 113.088 281.458 113.58 280.36C113.594 281.564 113.432 282.763 113.1 283.92C112.931 285.111 112.594 286.273 112.1 287.37V287.37Z" fill="#263238"/>
<path id="Vector_83" d="M119 289.34C118.85 289.34 118.93 287.5 118.63 285.27C118.33 283.04 117.81 281.27 117.96 281.27C119.177 283.782 119.528 286.627 118.96 289.36L119 289.34Z" fill="#263238"/>
<path id="Vector_84" d="M126 289.2C125.544 287.212 124.973 285.252 124.29 283.33C123.435 281.484 122.477 279.688 121.42 277.95C122.92 279.4 124.066 281.176 124.77 283.14C125.631 285.042 126.052 287.113 126 289.2V289.2Z" fill="#263238"/>
<path id="Vector_85" d="M129.19 276.81C129.19 276.95 128.24 276.81 127.19 276.52C126.14 276.23 125.27 275.87 125.31 275.73C125.35 275.59 126.25 275.73 127.31 276.02C128.37 276.31 129.22 276.67 129.19 276.81Z" fill="#263238"/>
<path id="Vector_86" d="M99.3901 271.27C100.492 270.976 101.642 270.908 102.77 271.07C103.911 271.062 105.043 271.28 106.1 271.71C104.979 271.793 103.852 271.753 102.74 271.59C101.616 271.594 100.494 271.487 99.3901 271.27Z" fill="#263238"/>
<path id="Vector_87" d="M109.17 265.22C109.07 265.35 106.89 263.65 103.88 262.11C100.87 260.57 98.24 259.75 98.28 259.6C100.332 259.905 102.312 260.583 104.12 261.6C106.008 262.492 107.719 263.718 109.17 265.22V265.22Z" fill="#263238"/>
<path id="Vector_88" d="M68.8001 267.88C68.5103 268.037 68.2009 268.155 67.8801 268.23C67.0258 268.5 66.1537 268.711 65.2701 268.86C59.4076 269.913 53.3622 269.083 48.0001 266.49C47.1882 266.103 46.4031 265.662 45.6501 265.17C45.3592 265.017 45.0929 264.822 44.8601 264.59C44.8601 264.51 46.1001 265.25 48.1501 266.15C53.5196 268.525 59.4493 269.339 65.2601 268.5C67.4301 268.18 68.7701 267.79 68.8001 267.88Z" fill="#263238"/>
<path id="Vector_89" d="M72.2802 265C71.5076 265.222 70.6982 265.287 69.9002 265.19C67.9568 265.053 66.0702 264.476 64.3828 263.502C62.6954 262.528 61.2514 261.184 60.1602 259.57C59.6923 258.924 59.3528 258.194 59.1602 257.42C59.2502 257.42 59.6302 258.2 60.4902 259.36C61.6262 260.829 63.0353 262.065 64.6402 263C66.2692 263.934 68.0672 264.535 69.9302 264.77C71.3702 264.94 72.2702 264.86 72.2802 265Z" fill="#263238"/>
<path id="Vector_90" d="M82 260.24C81.3985 260.541 80.7321 260.688 80.06 260.67C78.4232 260.759 76.7958 260.371 75.3756 259.553C73.9554 258.734 72.8035 257.521 72.06 256.06C71.7064 255.486 71.5035 254.833 71.47 254.16C71.55 254.16 71.77 254.86 72.38 255.88C73.1636 257.21 74.2761 258.316 75.6105 259.092C76.945 259.867 78.4566 260.287 80 260.31C81.2 260.33 81.94 260.16 82 260.24Z" fill="#263238"/>
<path id="Vector_91" d="M127.31 288.08C128.579 287.5 129.769 286.761 130.85 285.88C133.369 283.622 135.118 280.632 135.85 277.33C136.503 274.015 136.678 270.624 136.37 267.26C136.28 266.05 136.21 265.02 136.15 264.18C136.1 263.805 136.1 263.425 136.15 263.05C136.264 263.411 136.338 263.783 136.37 264.16C136.48 264.88 136.62 265.93 136.76 267.23C137.18 270.636 137.048 274.086 136.37 277.45C135.636 280.849 133.805 283.913 131.16 286.17C130.351 286.83 129.447 287.366 128.48 287.76C128.11 287.928 127.715 288.036 127.31 288.08V288.08Z" fill="white"/>
<path id="Vector_92" d="M340.09 72.28C348.45 71.84 337.66 89.28 331.17 94.64C327.89 97.2651 324.007 99.0319 319.873 99.7808C315.739 100.53 311.483 100.237 307.49 98.93C309.047 104.224 308.915 109.871 307.114 115.087C305.313 120.303 301.931 124.828 297.439 128.033C292.947 131.238 287.569 132.964 282.051 132.97C276.533 132.977 271.15 131.264 266.65 128.07C270.54 130.69 274.51 133.38 277.31 137.14C280.11 140.9 281.59 145.99 279.9 150.36C278.21 154.73 272.67 157.6 268.52 155.42C274.83 153.99 278.45 145.72 275.21 140.11C273.4 136.97 270.11 135.02 266.97 133.19C263.83 131.36 260.57 129.34 258.85 126.19C257.13 123.04 257.71 118.27 260.98 116.69C263.965 118.608 267.555 119.349 271.056 118.769C274.556 118.189 277.715 116.329 279.922 113.551C282.128 110.772 283.224 107.274 282.996 103.733C282.769 100.193 281.234 96.8629 278.69 94.39C265.22 99.6 248.2 91.39 243.88 77.61C239.56 63.83 243.46 37.97 283.56 35.5C283.56 35.5 298.2 33.73 302.43 49.5C306.66 65.27 313.72 73.65 340.09 72.28Z" fill="#263238"/>
<path id="Vector_93" d="M263.35 119C263.35 119 263.54 119.49 263.97 120.39C264.616 121.689 265.482 122.866 266.53 123.87C268.19 125.457 270.191 126.644 272.38 127.34C275.275 128.292 278.391 128.333 281.31 127.46C284.818 126.354 287.94 124.273 290.31 121.46C293.044 118.227 294.863 114.322 295.58 110.15C296.384 105.543 296.299 100.825 295.33 96.25C294.888 93.8316 293.96 91.5283 292.6 89.48C291.891 88.4856 291.011 87.6255 290 86.94C288.928 86.2637 287.772 85.7324 286.56 85.36C284.13 84.55 281.56 84.18 279.19 83.16C276.854 82.1998 274.7 80.8469 272.82 79.16C271.006 77.5459 269.446 75.6683 268.19 73.59C266.952 71.62 266.015 69.4764 265.41 67.23C264.189 63.0815 264.234 58.6627 265.54 54.54C266.726 50.9733 268.789 47.7617 271.54 45.2C273.772 43.0719 276.379 41.3765 279.23 40.2C281.38 39.3197 283.647 38.7604 285.96 38.54C286.8 38.4517 287.646 38.4249 288.49 38.46C289.109 38.462 289.728 38.5088 290.34 38.6L291.47 38.77C291.599 38.7824 291.727 38.8093 291.85 38.85C291.72 38.8635 291.59 38.8635 291.46 38.85L290.33 38.73C289.719 38.663 289.105 38.6363 288.49 38.65C287.652 38.6349 286.813 38.675 285.98 38.77C283.696 39.0272 281.46 39.6097 279.34 40.5C276.536 41.6864 273.977 43.3816 271.79 45.5C269.118 48.0372 267.118 51.1986 265.97 54.7C264.712 58.7472 264.684 63.077 265.89 67.14C266.495 69.336 267.418 71.4316 268.63 73.36C269.871 75.3876 271.4 77.2235 273.17 78.81C275.016 80.4385 277.127 81.7405 279.41 82.66C281.7 83.66 284.26 84.02 286.74 84.84C287.995 85.2295 289.192 85.7844 290.3 86.49C291.387 87.2134 292.329 88.1323 293.08 89.2C294.492 91.3132 295.449 93.697 295.89 96.2C296.86 100.843 296.935 105.629 296.11 110.3C295.368 114.553 293.496 118.529 290.69 121.81C288.248 124.676 285.034 126.779 281.43 127.87C278.818 128.618 276.054 128.661 273.42 127.995C270.785 127.33 268.374 125.979 266.43 124.08C265.382 123.046 264.531 121.83 263.92 120.49C263.687 120.011 263.496 119.512 263.35 119Z" fill="#455A64"/>
<path id="Vector_94" d="M281.9 129.3H282.24L283.24 129.41C283.763 129.49 284.291 129.524 284.82 129.51C285.541 129.533 286.264 129.499 286.98 129.41L288.25 129.26L289.64 128.95C290.144 128.842 290.639 128.695 291.12 128.51C291.65 128.346 292.171 128.152 292.68 127.93C295.09 126.903 297.302 125.465 299.22 123.68C301.564 121.541 303.461 118.957 304.8 116.08C306.338 112.78 307.058 109.158 306.9 105.52C306.72 97.84 302.9 89.62 296.59 83.44C295.004 81.93 293.306 80.5427 291.51 79.29C289.73 78.05 287.92 76.9 286.18 75.71C282.71 73.36 279.42 70.71 277.37 67.35C275.441 64.154 274.53 60.4462 274.76 56.72C274.917 53.4802 275.954 50.3444 277.76 47.65C279.282 45.4606 281.265 43.631 283.57 42.29C285.297 41.2711 287.178 40.5383 289.14 40.12C290.377 39.8666 291.637 39.7426 292.9 39.75L293.9 39.81H294.23C294.117 39.8207 294.003 39.8207 293.89 39.81H292.89C291.638 39.8465 290.392 40.0039 289.17 40.28C287.246 40.7315 285.403 41.4805 283.71 42.5C281.466 43.8419 279.538 45.6533 278.06 47.81C276.31 50.4573 275.311 53.5298 275.17 56.7C274.965 60.3358 275.869 63.9482 277.76 67.06C279.76 70.34 282.98 72.91 286.45 75.25C288.19 76.43 290 77.58 291.78 78.83C293.606 80.09 295.328 81.4945 296.93 83.03C303.37 89.29 307.2 97.64 307.36 105.47C307.508 109.178 306.756 112.866 305.17 116.22C303.798 119.141 301.852 121.756 299.45 123.91C297.491 125.707 295.23 127.142 292.77 128.15C292.253 128.377 291.722 128.571 291.18 128.73C290.692 128.909 290.19 129.049 289.68 129.15L288.27 129.45L286.98 129.58C286.251 129.639 285.519 129.639 284.79 129.58C284.256 129.585 283.723 129.534 283.2 129.43L282.2 129.28C282.101 129.298 282 129.305 281.9 129.3V129.3Z" fill="#455A64"/>
<path id="Vector_95" d="M309.47 63.23C309.343 63.7631 309.172 64.2849 308.96 64.79C308.61 65.79 308.13 67.22 307.65 69.03C306.314 73.7274 306.091 78.6716 307 83.47C307.577 86.0773 308.624 88.5578 310.09 90.79C311.288 92.6177 312.782 94.2331 314.51 95.57C316.139 96.7602 317.935 97.7037 319.84 98.37C319.697 98.3699 319.555 98.3463 319.42 98.3C319.023 98.2075 318.632 98.0906 318.25 97.95C316.82 97.4563 315.472 96.7518 314.25 95.86C312.448 94.5406 310.892 92.9161 309.65 91.06C308.125 88.7887 307.04 86.2515 306.45 83.58C305.508 78.7058 305.78 73.6748 307.24 68.93C307.648 67.4962 308.139 66.0871 308.71 64.71C308.91 64.22 309.09 63.86 309.2 63.6C309.273 63.4649 309.364 63.3404 309.47 63.23V63.23Z" fill="#455A64"/>
<path id="Vector_96" d="M205.19 66C207.82 84 199.92 106.61 187.19 119.51C180.74 125.933 172.907 130.797 164.29 133.731C155.673 136.665 146.5 137.592 137.47 136.44C133.537 142.19 128.265 146.897 122.109 150.158C115.953 153.419 109.096 155.136 102.13 155.16C96.3401 155.16 90.6201 153.9 84.8301 153.83C79.0401 153.76 72.8301 155.09 68.8301 159.24C107 116.88 152.72 88.19 205.19 66Z" fill="#263238"/>
<path id="Vector_97" d="M74.55 149.27L74.93 149.39C75.18 149.47 75.54 149.62 76.03 149.77C77.4606 150.193 78.9392 150.431 80.43 150.48C82.8022 150.529 85.1664 150.191 87.43 149.48C90.4175 148.566 93.2545 147.219 95.85 145.48C98.9613 143.312 101.931 140.947 104.74 138.4C107.968 135.44 111.429 132.744 115.09 130.34C119.229 127.822 123.653 125.808 128.27 124.34C133.05 122.76 138.11 121.54 143.27 120.34C153.64 118.07 163.61 115.79 171.79 111.52C173.772 110.492 175.683 109.333 177.51 108.05C179.228 106.83 180.843 105.472 182.34 103.99C184.987 101.283 187.149 98.1403 188.73 94.7C190.043 91.8563 190.877 88.8155 191.2 85.7C191.429 83.3605 191.297 80.9997 190.81 78.7C190.331 76.7445 189.633 74.8492 188.73 73.05L188.93 73.39L189.48 74.39C189.785 74.9495 190.039 75.5352 190.24 76.14C190.401 76.5108 190.538 76.8916 190.65 77.28C190.76 77.7 190.88 78.15 191.01 78.62C191.535 80.9479 191.696 83.3428 191.49 85.72C191.194 88.8678 190.373 91.9437 189.06 94.82C187.487 98.3144 185.318 101.509 182.65 104.26C181.143 105.769 179.514 107.15 177.78 108.39C175.938 109.724 174.007 110.93 172 112C163.76 116.33 153.74 118.63 143.38 120.9C138.19 122.06 133.14 123.27 128.38 124.83C123.798 126.283 119.404 128.273 115.29 130.76C111.645 133.147 108.198 135.822 104.98 138.76C102.136 141.305 99.1295 143.664 95.98 145.82C93.3487 147.572 90.4702 148.92 87.44 149.82C85.1727 150.506 82.8076 150.814 80.44 150.73C78.9365 150.664 77.4492 150.392 76.02 149.92C75.53 149.75 75.17 149.59 74.93 149.49C74.7937 149.435 74.6658 149.361 74.55 149.27V149.27Z" fill="#455A64"/>
</g>
<g id="right-eye">
<path id="Vector_98" d="M361.12 261.31C351.82 265.99 351.42 268.81 343.72 275.49C340 278.72 336.18 282.09 334.1 286.55C332.02 291.01 331.48 302.67 335.77 300.26C337.35 299.38 346.63 298.51 352.13 300.72C364.42 305.65 378.33 305.86 391.47 304.26C400.098 303.109 408.27 299.706 415.166 294.394C422.061 289.082 427.436 282.048 430.75 274C432.16 270.44 433.09 266.19 431.07 262.94C429.6 260.56 426.91 259.29 424.31 258.28C414.042 254.363 403.067 252.636 392.092 253.212C381.117 253.787 370.383 256.651 360.58 261.62" fill="#EBEBEB"/>
<path id="Vector_99" d="M433.35 267.26C433.44 267.26 433.43 267.72 433.35 268.55C433.225 269.762 433.004 270.963 432.69 272.14C431.589 276.512 429.786 280.676 427.35 284.47C426.63 285.72 425.69 286.88 424.79 288.16C423.89 289.44 422.79 290.66 421.59 291.84C419.126 294.462 416.352 296.776 413.33 298.73C409.99 300.916 406.375 302.651 402.58 303.89C400.569 304.515 398.522 305.019 396.45 305.4C395.4 305.63 394.33 305.69 393.26 305.84C392.183 306 391.098 306.1 390.01 306.14C381.26 306.64 373.07 305.39 365.74 304.26C358.41 303.13 351.86 302.01 346.32 301.55C341.949 301.18 337.558 301.133 333.18 301.41C330.09 301.73 328.36 301.91 328.32 301.72C328.28 301.53 329.95 301.04 333.05 300.4C337.479 299.727 341.965 299.499 346.44 299.72C352.1 299.94 358.77 300.86 366.09 301.89C373.41 302.92 381.48 304.02 389.86 303.54C390.898 303.503 391.932 303.409 392.96 303.26C393.96 303.12 395.01 303.06 395.96 302.85C397.921 302.496 399.861 302.032 401.77 301.46C405.368 300.318 408.806 298.722 412 296.71C414.901 294.895 417.585 292.754 420 290.33C421.18 289.23 422.16 288.01 423.17 286.9C424.18 285.79 425.03 284.62 425.76 283.46C428.243 279.874 430.231 275.968 431.67 271.85C432.23 270.4 432.53 269.23 432.79 268.44C433.05 267.65 433.26 267.25 433.35 267.26Z" fill="#263238"/>
<path id="Vector_100" d="M373 256C371.071 256.078 369.189 256.621 367.514 257.582C365.839 258.543 364.421 259.894 363.38 261.52C361.318 264.804 360.332 268.649 360.56 272.52C360.751 277.302 362.282 281.934 364.978 285.887C367.675 289.841 371.428 292.957 375.81 294.88C384.63 298.53 395.64 296.25 402.06 289.2C408.48 282.15 409.68 270.76 404.61 262.68C399.54 254.6 388.51 250.76 379.61 254.19" fill="#CDCD66"/>
<path id="Vector_101" d="M379.6 254.18C379.54 254.08 381.25 253 384.79 252.49C386.95 252.24 389.136 252.324 391.27 252.74C395.816 253.608 399.981 255.865 403.19 259.2C404.454 260.56 405.539 262.076 406.42 263.71C408.292 267.367 409.145 271.46 408.89 275.56C408.662 280.109 407.131 284.496 404.48 288.2C401.561 292.151 397.47 295.08 392.79 296.57C388.156 298.102 383.181 298.279 378.45 297.08C374.065 295.914 370.096 293.537 367 290.22C364.194 287.272 362.086 283.731 360.83 279.86C359.746 276.497 359.381 272.943 359.76 269.43C360.05 266.504 361.057 263.695 362.69 261.25C363.95 259.423 365.648 257.941 367.63 256.94C368.873 256.3 370.235 255.922 371.63 255.83C372.57 255.83 373.05 255.92 373.05 255.99C373.05 256.24 371.05 256.09 368.15 257.83C366.436 258.888 364.994 260.334 363.94 262.05C362.581 264.352 361.786 266.942 361.62 269.61C361.39 272.855 361.829 276.112 362.91 279.18C364.152 282.691 366.145 285.889 368.75 288.55C371.587 291.491 375.183 293.589 379.14 294.61C383.403 295.655 387.875 295.475 392.04 294.09C396.202 292.768 399.85 290.186 402.48 286.7C404.88 283.399 406.292 279.483 406.55 275.41C406.839 271.723 406.149 268.025 404.55 264.69C403.794 263.206 402.86 261.819 401.77 260.56C400.726 259.412 399.559 258.382 398.29 257.49C396.093 255.934 393.624 254.804 391.01 254.16C389.023 253.661 386.977 253.439 384.93 253.5C381.49 253.68 379.67 254.4 379.6 254.18Z" fill="#263238"/>
<path id="Vector_102" d="M442.25 246.16C442.09 246.32 440.74 244.89 437.81 243.04C433.647 240.498 429.009 238.831 424.18 238.14C418.09 237.14 410.67 237.45 402.42 238.24C393.493 238.972 384.626 240.308 375.88 242.24C367.17 244.155 358.741 247.18 350.8 251.24C347.363 253.041 344.055 255.08 340.9 257.34C338.159 259.32 335.556 261.485 333.11 263.82C329.554 267.203 326.388 270.973 323.67 275.06C323.19 275.79 322.77 276.44 322.39 277C322.01 277.56 321.75 278.06 321.5 278.46C321.01 279.24 320.71 279.63 320.63 279.6C320.55 279.57 320.69 279.09 321.04 278.22C321.21 277.79 321.43 277.22 321.71 276.63L322.8 274.54C325.244 270.152 328.272 266.115 331.8 262.54C334.231 260.053 336.838 257.744 339.6 255.63C342.788 253.226 346.15 251.064 349.66 249.16C357.737 244.875 366.359 241.71 375.29 239.75C384.153 237.784 393.152 236.494 402.21 235.89C406.37 235.58 410.34 235.35 414.09 235.39C417.58 235.407 421.061 235.742 424.49 236.39C429.504 237.277 434.253 239.288 438.38 242.27C441.24 244.39 442.35 246.07 442.25 246.16Z" fill="#263238"/>
<path id="Vector_103" d="M451.92 276.58C451.79 276.7 451.31 276.47 450.53 275.91C450.14 275.63 449.67 275.28 449.14 274.84C448.61 274.4 447.99 273.9 447.27 273.38C443.353 270.265 439.197 267.463 434.84 265C433.5 264.18 431.99 263.51 430.47 262.71C428.95 261.91 427.28 261.27 425.6 260.53C423.92 259.79 422.12 259.12 420.23 258.53C419.3 258.24 418.36 257.91 417.39 257.63L414.39 256.85C401.197 253.398 387.301 253.699 374.27 257.72C370.154 258.987 366.158 260.617 362.33 262.59L359.64 264.03C358.76 264.52 357.93 265.03 357.1 265.57C355.4 266.57 353.91 267.72 352.39 268.75C351.65 269.29 350.96 269.88 350.26 270.42C349.56 270.96 348.86 271.49 348.26 272.08C347.02 273.25 345.73 274.28 344.68 275.44C343.63 276.6 342.51 277.61 341.62 278.71C340.73 279.81 339.79 280.76 339.07 281.79C338.35 282.82 337.58 283.7 336.96 284.58L335.31 287.02C334.78 287.74 334.37 288.42 334.01 289.02C333.65 289.62 333.32 290.1 333.01 290.49C332.45 291.26 332.07 291.65 331.91 291.57C331.75 291.49 331.8 290.98 332.05 290.05C332.177 289.583 332.357 289.013 332.59 288.34C332.831 287.561 333.132 286.802 333.49 286.07L334.81 283.3C335.32 282.3 335.97 281.3 336.64 280.14C337.367 278.941 338.155 277.779 339 276.66C339.934 275.387 340.935 274.165 342 273C343 271.69 344.3 270.51 345.55 269.19C346.17 268.52 346.89 267.94 347.55 267.31C348.21 266.68 348.96 266.03 349.71 265.41C351.27 264.23 352.82 262.91 354.58 261.79C355.45 261.22 356.32 260.61 357.23 260.05L360.05 258.41C364.087 256.177 368.33 254.338 372.72 252.92C377.446 251.406 382.309 250.361 387.24 249.8C392.17 249.306 397.136 249.285 402.07 249.74C406.651 250.169 411.183 251.016 415.61 252.27L418.73 253.21C419.73 253.54 420.73 253.92 421.73 254.27C423.73 254.94 425.52 255.84 427.31 256.59C429.1 257.34 430.75 258.27 432.31 259.17C433.87 260.07 435.39 260.91 436.74 261.88C441.104 264.706 445.098 268.065 448.63 271.88C449.195 272.466 449.723 273.088 450.21 273.74C450.64 274.29 451 274.74 451.27 275.18C451.84 276 452.06 276.46 451.92 276.58Z" fill="#263238"/>
<path id="Vector_104" d="M394 271.6C394.149 273.796 393.644 275.987 392.548 277.896C391.452 279.805 389.814 281.346 387.842 282.325C385.87 283.303 383.653 283.675 381.47 283.393C379.286 283.111 377.236 282.188 375.577 280.74C373.919 279.293 372.727 277.386 372.152 275.261C371.577 273.136 371.645 270.889 372.348 268.803C373.05 266.716 374.355 264.885 376.098 263.541C377.841 262.197 379.944 261.399 382.14 261.25C383.598 261.151 385.062 261.34 386.447 261.806C387.833 262.273 389.112 263.007 390.214 263.969C391.315 264.93 392.216 266.098 392.866 267.408C393.516 268.717 393.901 270.142 394 271.6Z" fill="#263238"/>
<path id="Vector_105" d="M395.66 263.58C394.78 262.43 390.76 260.95 389.29 260.58C387.842 260.103 386.295 260.01 384.8 260.31C384.059 260.478 383.391 260.879 382.896 261.456C382.401 262.032 382.104 262.752 382.05 263.51C382.05 265.31 383.87 266.51 385.52 267.24C387.407 268.011 389.358 268.617 391.35 269.05C392.343 269.339 393.378 269.457 394.41 269.4C394.924 269.366 395.424 269.215 395.871 268.958C396.318 268.702 396.701 268.347 396.99 267.92C397.83 266.48 397 264.54 395.66 263.58Z" fill="white"/>
</g>
<g id="left-eye">
<path id="Vector_106" d="M60.86 272.71C60.06 278.49 62.86 279.62 67.01 283.71C71.16 287.8 76.5 290.47 81.75 293.03C92.42 298.26 103.44 303.4 115.26 304.66C129.55 306.18 143.75 301.92 157.48 297.66C160.996 296.359 164.079 294.101 166.38 291.14C169.38 287.42 168.78 283.41 166.19 279.43C163.6 275.45 159.48 272.75 155.43 270.28C141.54 261.78 126.26 254.15 109.98 254.22C101.39 254.22 92.98 256.44 84.64 258.62C75.9 260.9 68.55 267.93 60.86 272.62" fill="#EBEBEB"/>
<path id="Vector_107" d="M96.3101 255.9C89.7401 265.2 90.5901 280.46 98.6201 288.54C106.65 296.62 120.62 297.88 129.96 291.37C139.3 284.86 142.96 271.37 138.18 261C138.18 261 127.68 254.92 115.18 254.66C108.866 254.515 102.551 254.93 96.3101 255.9V255.9Z" fill="#CDCD66"/>
<path id="Vector_108" d="M96.31 255.9C96.31 255.65 100.58 254.57 108.19 254.02C110.1 253.89 112.19 253.8 114.49 253.79C116.984 253.767 119.475 253.948 121.94 254.33C127.82 255.297 133.504 257.212 138.77 260L139.09 260.17L139.25 260.53C141.358 265.167 142.024 270.33 141.16 275.35C140.276 280.807 137.726 285.858 133.86 289.81C130.127 293.472 125.312 295.833 120.13 296.54C117.701 296.87 115.239 296.87 112.81 296.54C111.636 296.382 110.471 296.161 109.32 295.88C108.204 295.567 107.105 295.193 106.03 294.76C103.952 293.931 102.002 292.809 100.24 291.43C99.3935 290.77 98.5886 290.059 97.83 289.3C97.1106 288.542 96.4424 287.737 95.83 286.89C94.6941 285.292 93.754 283.562 93.03 281.74C92.3896 280.065 91.9075 278.335 91.59 276.57C91.0501 273.552 90.9826 270.469 91.39 267.43C91.6803 265.145 92.2826 262.911 93.18 260.79C94.67 257.34 96.29 255.72 96.3 255.89C96.31 256.06 95.3 257.68 94.13 261.15C93.4351 263.235 93.0018 265.398 92.84 267.59C92.6013 270.475 92.7866 273.379 93.39 276.21C93.7477 277.848 94.2496 279.451 94.89 281C95.6043 282.642 96.507 284.196 97.58 285.63C98.1454 286.377 98.7566 287.089 99.41 287.76C100.111 288.425 100.853 289.046 101.63 289.62C103.248 290.844 105.033 291.831 106.93 292.55C107.909 292.943 108.911 293.277 109.93 293.55C110.983 293.793 112.047 293.98 113.12 294.11C115.328 294.375 117.56 294.344 119.76 294.02C124.383 293.341 128.67 291.208 132 287.93C135.482 284.373 137.795 279.837 138.63 274.93C139.45 270.408 138.911 265.745 137.08 261.53L137.56 262.05C132.553 259.327 127.156 257.391 121.56 256.31C119.203 255.871 116.816 255.613 114.42 255.54C112.17 255.46 110.09 255.45 108.2 255.48C100.72 255.58 96.35 256.17 96.31 255.9Z" fill="#263238"/>
<path id="Vector_109" d="M52.48 254C52.48 253.83 54.4 253.14 58.01 252.05C61.62 250.96 66.85 249.48 73.41 247.91C81.1012 246.03 88.9082 244.661 96.78 243.81C106.485 242.74 116.291 243.016 125.92 244.63C130.919 245.498 135.824 246.837 140.57 248.63C144.982 250.35 149.207 252.514 153.18 255.09C156.727 257.418 160.148 259.932 163.43 262.62C166.52 265.11 169.34 267.48 171.93 269.62C174.52 271.76 176.93 273.62 179.01 275.22C181.09 276.82 183.01 278.1 184.58 279.12L186.67 280.47L188.22 281.42C189.06 281.94 189.48 282.26 189.45 282.34C189.42 282.42 188.91 282.26 187.98 281.88C187.52 281.69 186.98 281.46 186.29 281.15L184.06 280C182.39 279.09 180.41 277.89 178.16 276.41C175.91 274.93 173.46 273.12 170.78 271.06C165.41 267.06 159.31 261.8 151.89 257.12C148.025 254.682 143.928 252.632 139.66 251C135.058 249.282 130.308 247.99 125.47 247.14C116.064 245.569 106.493 245.233 97 246.14C89.2064 246.87 81.4606 248.042 73.8 249.65C67.24 251 61.94 252.21 58.26 253C54.58 253.79 52.53 254.12 52.48 254Z" fill="#263238"/>
<path id="Vector_110" d="M162.73 295C162.79 295.15 161.42 296 158.79 297.23C155.054 298.944 151.188 300.361 147.23 301.47C141.353 303.147 135.323 304.236 129.23 304.72C114.213 305.979 99.115 303.577 85.23 297.72C79.5793 295.358 74.1791 292.437 69.11 289C65.694 286.711 62.464 284.157 59.45 281.36C57.34 279.36 56.29 278.14 56.45 278.02C56.75 277.68 61.45 282.08 70.15 287.45C75.2412 290.576 80.5947 293.252 86.15 295.45C99.7671 300.918 114.436 303.266 129.08 302.32C135.049 301.954 140.974 301.071 146.79 299.68C156.72 297.28 162.55 294.56 162.73 295Z" fill="#263238"/>
<path id="Vector_111" d="M126.654 274.826C128.248 268.895 124.732 262.795 118.801 261.201C112.869 259.607 106.77 263.123 105.176 269.055C103.582 274.986 107.098 281.085 113.029 282.679C118.96 284.273 125.06 280.757 126.654 274.826Z" fill="#263238"/>
<path id="Vector_112" d="M129.86 265.24C129.17 263.97 125.42 261.89 124.03 261.29C122.674 260.583 121.158 260.238 119.63 260.29C118.872 260.342 118.15 260.636 117.572 261.129C116.994 261.623 116.59 262.289 116.42 263.03C116.18 264.82 117.75 266.3 119.28 267.25C121.028 268.302 122.865 269.199 124.77 269.93C125.715 270.374 126.73 270.651 127.77 270.75C128.284 270.795 128.802 270.722 129.284 270.537C129.766 270.351 130.199 270.058 130.55 269.68C131.56 268.43 131.05 266.39 129.86 265.24Z" fill="white"/>
<path id="Vector_113" d="M438 274.88C438.08 274.88 438 275.33 437.89 276.12C437.82 276.52 437.71 277.01 437.58 277.59C437.45 278.17 437.21 278.8 436.98 279.59C435.578 283.731 433.555 287.636 430.98 291.17C427.182 296.478 422.335 300.95 416.74 304.31C409.811 308.339 402.039 310.698 394.04 311.2C386.167 311.689 378.264 311.353 370.46 310.2C363.31 309.28 356.94 308.25 351.56 307.63C346.18 307.01 341.83 306.7 338.81 306.58C335.79 306.46 334.1 306.46 334.09 306.26C334.08 306.06 335.74 305.77 338.8 305.57C343.114 305.352 347.437 305.429 351.74 305.8C357.19 306.19 363.63 307.03 370.74 307.8C378.389 308.786 386.114 309.037 393.81 308.55C401.432 308.075 408.85 305.898 415.52 302.18C420.925 299.056 425.678 294.921 429.52 290C432.128 286.67 434.311 283.029 436.02 279.16C436.333 278.493 436.603 277.883 436.83 277.33C437.04 276.79 437.22 276.33 437.38 275.96C437.68 275.23 437.89 274.86 438 274.88Z" fill="#723F33"/>
<path id="Vector_114" d="M171.38 300.36C171.38 300.55 169.81 300.94 166.93 301.68C164.05 302.42 159.93 303.53 154.78 304.98C149.63 306.43 143.54 308.19 136.55 309.54C114.867 313.646 92.4326 309.379 73.7701 297.6C71.4801 296.19 69.5401 294.71 67.7701 293.44C66.0001 292.17 64.7101 290.91 63.5801 289.93C61.4201 287.84 60.3001 286.63 60.4201 286.5C60.7401 286.12 65.5101 290.77 74.6801 296.02C80.0225 299.104 85.6565 301.653 91.5001 303.63C105.824 308.534 121.151 309.755 136.07 307.18C142.94 305.99 149.07 304.39 154.27 303.18C159.47 301.97 163.72 301.1 166.68 300.67C169.64 300.24 171.36 300.2 171.38 300.36Z" fill="#723F33"/>
<path id="Vector_115" d="M179.67 291.61C179.42 291.88 177.76 290.77 174.94 288.56C172.12 286.35 168.16 283.06 163.19 279.15C157.444 274.554 151.364 270.393 145 266.7C141.292 264.57 137.416 262.747 133.41 261.25C129.162 259.63 124.749 258.48 120.25 257.82C111.449 256.69 102.521 257.028 93.8301 258.82C91.8301 259.22 89.8701 259.653 87.9501 260.12C86.9501 260.35 86.1301 260.62 85.2401 260.86C84.3501 261.1 83.5101 261.43 82.6801 261.77C79.5735 263.031 76.5652 264.522 73.6801 266.23L66.2701 270.58C64.0501 271.85 62.1001 272.9 60.4501 273.64C57.1401 275.16 55.1601 275.64 55.0301 275.31C54.9001 274.98 56.5401 273.89 59.4401 271.88C60.9001 270.88 62.6501 269.62 64.6901 268.14C66.7301 266.66 69.0401 264.93 71.6901 263.14C74.6472 261.097 77.7756 259.314 81.0401 257.81C81.9301 257.4 82.8801 257.06 83.8201 256.68C84.7601 256.3 85.8201 256 86.8201 255.73C88.7701 255.16 90.8201 254.64 92.9101 254.16C102.105 251.962 111.624 251.458 121 252.67C125.878 253.383 130.657 254.662 135.24 256.48C139.479 258.14 143.562 260.175 147.44 262.56C153.9 266.569 159.964 271.183 165.55 276.34C170.3 280.68 173.91 284.42 176.3 287.08C178.69 289.74 179.92 291.36 179.67 291.61Z" fill="#263238"/>
</g>
</g>
</svg>
