<svg width="200" height="200" viewBox="0 0 200 200" fill="none" xmlns="http://www.w3.org/2000/svg">
<g id="bx:bxs-down-arrow">
<path id="Vector" d="M93.15 163.075C93.9145 164.185 94.9374 165.093 96.1307 165.72C97.324 166.348 98.6519 166.675 100 166.675C101.348 166.675 102.676 166.348 103.869 165.72C105.063 165.093 106.085 164.185 106.85 163.075L181.85 54.7418C182.718 53.4922 183.227 52.0287 183.322 50.5101C183.417 48.9916 183.093 47.4761 182.387 46.1284C181.681 44.7806 180.619 43.6522 179.317 42.8656C178.015 42.079 176.521 41.6644 175 41.6668H25C23.482 41.673 21.9944 42.093 20.6973 42.8814C19.4002 43.6699 18.3425 44.7971 17.638 46.1417C16.9336 47.4863 16.609 48.9975 16.6992 50.5128C16.7894 52.0282 17.291 53.4902 18.15 54.7418L93.15 163.075Z" fill="#CDCD66"/>
</g>
</svg>
